Coordinates
version=1
nRows=16
nColumns=22
inDegrees=yes

Units are S.I. units (second, meters, Newtons, ...)
If the header above contains a line with 'inDegrees', this indicates whether rotational values are in degrees (yes) or radians (no).

endheader
time	pelvis_tilt	pelvis_list	pelvis_rotation	pelvis_tx	pelvis_ty	pelvis_tz	hip_flexion_r	hip_adduction_r	hip_rotation_r	knee_angle_r	ankle_angle_r	subtalar_angle_r	hip_flexion_l	hip_adduction_l	hip_rotation_l	knee_angle_l	ankle_angle_l	subtalar_angle_l	lumbar_extension	lumbar_bending	lumbar_rotation
      1.21000000	     -1.35720033	      1.92514247	    -28.40960641	     -0.92278375	      0.89618633	     -0.35715245	     13.06051262	     -3.85548123	      2.86042165	    -36.64771791	     19.60694234	     -6.40217326	      1.56201550	      3.08937697	    -14.02916862	    -16.68949215	     19.42795556	     -5.63139335	     -8.29796333	     -3.12231139	      3.09856747
      1.22000000	     -1.37445778	      1.88445493	    -28.50888075	     -0.92182876	      0.89616834	     -0.35765457	     14.54906830	     -3.59334912	      3.40665309	    -39.15591391	     18.89402894	     -6.99659168	      1.44090890	      3.11143180	    -14.16478742	    -16.57176706	     19.46732689	     -5.52700246	     -8.60675755	     -3.08861222	      3.02688138
      1.23000000	     -1.36219234	      1.81632859	    -28.58584488	     -0.92065956	      0.89623770	     -0.35803671	     15.91923112	     -3.31217952	      3.84323035	    -41.46666298	     18.20618681	     -7.46056792	      1.23109010	      3.12979877	    -14.25550452	    -16.39611246	     19.46366895	     -5.44222730	     -8.94258704	     -3.04045423	      2.91389242
      1.24000000	     -1.38868884	      1.72848877	    -28.58991472	     -0.91926627	      0.89627112	     -0.35836448	     17.22669703	     -3.02176372	      4.06335204	    -43.54410187	     17.62137855	     -8.00040503	      1.05731624	      3.09643607	    -14.32812449	    -16.26634590	     19.51374063	     -5.32937275	     -9.22994949	     -2.94173487	      2.71658235
      1.25000000	     -1.41425517	      1.60744653	    -28.54163498	     -0.91763795	      0.89635349	     -0.35861634	     18.40910290	     -2.73513441	      4.09921101	    -45.33332176	     17.18527486	     -8.50965021	      0.84675163	      3.03020421	    -14.35639232	    -16.12909397	     19.56802669	     -5.20374093	     -9.51784197	     -2.80042848	      2.46876986
      1.26000000	     -1.44932620	      1.45776929	    -28.45068395	     -0.91575321	      0.89646469	     -0.35878031	     19.47505750	     -2.46018366	      3.95662546	    -46.81270346	     16.90499590	     -8.93021886	      0.60008895	      2.93305260	    -14.34562454	    -15.96572595	     19.62858064	     -5.07012463	     -9.78349610	     -2.61290380	      2.19088336
      1.27000000	     -1.49343989	      1.28793363	    -28.32736285	     -0.91370522	      0.89659421	     -0.35885839	     20.43891908	     -2.19888107	      3.67198780	    -47.97784236	     16.78659883	     -9.27454379	      0.34359033	      2.80760444	    -14.30046029	    -15.80824302	     19.68492133	     -4.92525000	    -10.03977991	     -2.39774987	      1.90493802
      1.28000000	     -1.50963972	      1.10604147	    -28.20346633	     -0.91149092	      0.89677091	     -0.35883142	     21.28590018	     -1.97199319	      3.29162911	    -48.84825489	     16.73291380	     -9.45858290	      0.03306287	      2.68436722	    -14.26780958	    -15.63725747	     19.75204687	     -4.82544125	    -10.31682199	     -2.18194675	      1.63876065
      1.29000000	     -1.63037497	      0.93633567	    -28.04391592	     -0.90910949	      0.89680465	     -0.35872262	     22.13668753	     -1.73759975	      2.80496612	    -49.40107380	     16.88214320	     -9.89085720	     -0.17683090	      2.51316811	    -14.20184092	    -15.47558417	     19.75768607	     -4.56564654	    -10.45419344	     -1.91465517	      1.36088987
      1.30000000	     -1.70275334	      0.76458855	    -27.88509351	     -0.90657419	      0.89688241	     -0.35854074	     22.87275613	     -1.56859981	      2.23387649	    -49.69157580	     16.98413515	    -10.04038909	     -0.45742010	      2.37161644	    -14.11201854	    -15.28986623	     19.83560588	     -4.45216239	    -10.63510617	     -1.66790210	      1.08603139
      1.31000000	     -1.81332299	      0.59096715	    -27.72787684	     -0.90391537	      0.89688981	     -0.35824416	     23.56175093	     -1.39829867	      1.61585415	    -49.70255828	     17.16471447	    -10.25281517	     -0.69902750	      2.20193729	    -14.02953258	    -15.13113466	     19.86368203	     -4.29906933	    -10.76478733	     -1.39880817	      0.84042823
      1.32000000	     -1.90766534	      0.41970723	    -27.60590901	     -0.90114410	      0.89687160	     -0.35776806	     24.17562731	     -1.24162675	      0.99466656	    -49.47916541	     17.33186976	    -10.84224338	     -0.96606105	      2.03627563	    -13.99304978	    -14.97787243	     19.90978195	     -3.95632734	    -10.89614338	     -1.15224420	      0.63472663
      1.33000000	     -2.01569359	      0.24732901	    -27.47873092	     -0.89822836	      0.89678810	     -0.35720566	     24.73000698	     -1.09859964	      0.33822616	    -49.02025015	     17.49406897	    -11.05386824	     -1.21105652	      1.86125982	    -13.93173825	    -14.86150064	     19.97799333	     -3.83909957	    -11.00498149	     -0.89175149	      0.42419846
      1.34000000	     -2.10779885	      0.05650838	    -27.37065149	     -0.89519048	      0.89668011	     -0.35647741	     25.19351988	     -0.94569339	     -0.32290438	    -48.34771191	     17.64163846	    -11.36802067	     -1.48163484	      1.67101729	    -13.87447588	    -14.76758382	     20.05901159	     -3.67482703	    -11.13119284	     -0.62988221	      0.25545564
      1.35000000	     -2.18851892	     -0.14742325	    -27.28727173	     -0.89202915	      0.89653511	     -0.35558824	     25.57479758	     -0.77412072	     -0.96405982	    -47.47293880	     17.78066048	    -11.70263607	     -1.77267008	      1.47279056	    -13.82419057	    -14.69321620	     20.14814870	     -3.51154307	    -11.26875328	     -0.36522720	      0.13538431
      1.36000000	     -2.25607504	     -0.35995126	    -27.22646276	     -0.88875055	      0.89634292	     -0.35453081	     25.88214571	     -0.58462555	     -1.57705838	    -46.42438598	     17.89412793	    -11.99696334	     -2.08432892	      1.26982200	    -13.77789626	    -14.63688942	     20.25260845	     -3.36887427	    -11.41835177	     -0.10702255	      0.04751232
